<?xml version="1.0" encoding="UTF-8" standalone="no"?>
<!-- Created with Inkscape (http://www.inkscape.org/) -->

<svg
   width="7.2680001in"
   height="7.6929994in"
   viewBox="0 0 184.6072 195.40218"
   version="1.1"
   id="svg5"
   xml:space="preserve"
   inkscape:version="1.2.2 (b0a8486541, 2022-12-01)"
   sodipodi:docname="simple-polygon-web3.svg"
   inkscape:export-filename="Downloads/polygon.svg"
   inkscape:export-xdpi="53.280136"
   inkscape:export-ydpi="53.280136"
   xmlns:inkscape="http://www.inkscape.org/namespaces/inkscape"
   xmlns:sodipodi="http://sodipodi.sourceforge.net/DTD/sodipodi-0.dtd"
   xmlns="http://www.w3.org/2000/svg"
   xmlns:svg="http://www.w3.org/2000/svg"><sodipodi:namedview
     id="namedview7"
     pagecolor="#505050"
     bordercolor="#eeeeee"
     borderopacity="1"
     inkscape:showpageshadow="0"
     inkscape:pageopacity="0"
     inkscape:pagecheckerboard="0"
     inkscape:deskcolor="#505050"
     inkscape:document-units="mm"
     showgrid="false"
     inkscape:zoom="0.50422278"
     inkscape:cx="682.23811"
     inkscape:cy="473.99683"
     inkscape:window-width="1324"
     inkscape:window-height="740"
     inkscape:window-x="0"
     inkscape:window-y="0"
     inkscape:window-maximized="1"
     inkscape:current-layer="layer1" /><defs
     id="defs2" /><g
     inkscape:label="Layer 1"
     inkscape:groupmode="layer"
     id="layer1"><rect
       style="fill:#8247e5;fill-opacity:1;stroke-width:6.00545"
       id="rect1174"
       width="197.59261"
       height="187.05579"
       x="-196.9828"
       y="-1.3100934"
       transform="rotate(-90)" /><path
       d="M -1.5564409,97.096565 V 196.10042 H 91.924513 185.40547 V 97.096565 -1.9072645 H 91.924513 -1.5564409 Z M 80.969714,51.152594 c 7.449262,4.48611 14.168207,8.817537 14.971558,9.668361 1.241551,1.31489 1.46064,2.552429 1.46064,8.585482 v 7.115889 l -5.477399,3.325923 c -2.994312,1.856329 -5.696496,3.3259 -5.988624,3.3259 -0.36516,0 -0.584255,-2.861812 -0.584255,-6.419768 0,-4.331428 -0.36516,-6.883856 -1.022448,-7.966713 -1.752769,-2.55245 -16.724327,-11.137932 -19.572576,-11.137932 -2.702184,0 -16.724327,7.889361 -19.207413,10.828548 -1.241546,1.469571 -1.460641,3.016516 -1.679737,11.137932 -0.36516,13.380979 -0.292127,13.535679 10.58964,19.955449 4.747079,2.939185 9.494159,5.259585 10.516607,5.259585 1.679734,0 6.353783,-2.70714 38.633933,-22.198518 6.64591,-4.022043 13.07272,-7.502647 14.3873,-7.73468 1.89884,-0.386736 4.60101,1.005505 17.30859,8.585482 8.25262,4.950201 15.33671,9.668361 15.77491,10.519161 0.43818,0.85083 0.73031,8.740185 0.73031,19.181995 0,16.55222 -0.0731,17.86711 -1.46063,19.72342 -2.33703,3.09389 -28.48247,18.33119 -31.47679,18.33119 -1.82581,0 -6.35379,-2.32041 -17.08948,-8.74018 -16.505248,-9.82304 -16.286153,-9.59101 -16.359186,-19.25935 l -0.07304,-5.10488 5.842559,-3.55795 c 3.140375,-1.93366 5.988616,-3.55796 6.207725,-3.55796 0.219089,0 0.365163,2.6298 0.365163,5.80102 0,3.55794 0.438178,6.72915 1.02245,7.96671 1.387589,2.78449 16.724339,11.75671 20.083789,11.75671 3.14039,0 18.62317,-9.51366 19.71864,-12.14344 0.4382,-1.00551 0.80336,-6.26509 0.80336,-11.7567 0,-12.14344 0.0731,-11.98876 -10.37053,-18.253845 -5.76954,-3.48061 -8.1796,-4.56346 -10.44359,-4.56346 -2.41005,0 -6.86501,2.4751 -27.021847,14.618535 -18.842255,11.36999 -24.611782,14.54118 -26.656678,14.46385 -1.898832,0 -6.20772,-2.16571 -16.432199,-8.19876 -7.595328,-4.56346 -14.460335,-8.97222 -15.117623,-9.82305 C 32.18433,99.416985 32.038267,97.251265 32.038267,80.931106 V 62.522582 l 1.825805,-1.778978 c 1.022448,-1.005506 7.814423,-5.414285 15.190656,-9.823042 9.786286,-5.878351 13.949112,-7.966713 15.847943,-7.966713 1.898831,0 5.915592,2.01101 16.067039,8.198745 z"
       id="path2581"
       style="fill:#c8f1fe;fill-opacity:0.583832;stroke:none;stroke-width:0.0751585" /></g></svg>
